<?xml version="1.0" encoding="UTF-8"?>
<!--Generator: Apple Native CoreSVG 329.6-->
<!DOCTYPE svg
PUBLIC "-//W3C//DTD SVG 1.1//EN"
       "http://www.w3.org/Graphics/SVG/1.1/DTD/svg11.dtd">
<svg version="1.1" xmlns="http://www.w3.org/2000/svg" xmlns:xlink="http://www.w3.org/1999/xlink" viewBox="0 0 3300 2200">
 <!--glyph: "", point size: 100.0, font version: "20.0d10e1", template writer version: "138.0.0"-->
 <style>.monochrome-0 {-sfsymbols-motion-group:1;-sfsymbols-layer-tags:57789d4b9d3a7457}
.monochrome-1 {-sfsymbols-motion-group:0;-sfsymbols-layer-tags:57789d4b9d3a7457}

.multicolor-0:tintColor {-sfsymbols-motion-group:1;-sfsymbols-layer-tags:57789d4b9d3a7457}
.multicolor-1:tintColor {-sfsymbols-motion-group:0;-sfsymbols-layer-tags:57789d4b9d3a7457}

.hierarchical-0:secondary {-sfsymbols-motion-group:1;-sfsymbols-layer-tags:57789d4b9d3a7457}
.hierarchical-1:primary {-sfsymbols-motion-group:0;-sfsymbols-layer-tags:57789d4b9d3a7457}

.SFSymbolsPreviewWireframe {fill:none;opacity:1.0;stroke:black;stroke-width:0.5}
</style>
 <g id="Notes">
  <rect height="2200" id="artboard" style="fill:white;opacity:1" width="3300" x="0" y="0"/>
  <line style="fill:none;stroke:black;opacity:1;stroke-width:0.5;" x1="263" x2="3036" y1="292" y2="292"/>
  <text style="stroke:none;fill:black;font-family:sans-serif;font-size:13;font-weight:bold;" transform="matrix(1 0 0 1 263 322)">Weight/Scale Variations</text>
  <text style="stroke:none;fill:black;font-family:sans-serif;font-size:13;text-anchor:middle;" transform="matrix(1 0 0 1 559.711 322)">Ultralight</text>
  <text style="stroke:none;fill:black;font-family:sans-serif;font-size:13;text-anchor:middle;" transform="matrix(1 0 0 1 856.422 322)">Thin</text>
  <text style="stroke:none;fill:black;font-family:sans-serif;font-size:13;text-anchor:middle;" transform="matrix(1 0 0 1 1153.13 322)">Light</text>
  <text style="stroke:none;fill:black;font-family:sans-serif;font-size:13;text-anchor:middle;" transform="matrix(1 0 0 1 1449.84 322)">Regular</text>
  <text style="stroke:none;fill:black;font-family:sans-serif;font-size:13;text-anchor:middle;" transform="matrix(1 0 0 1 1746.56 322)">Medium</text>
  <text style="stroke:none;fill:black;font-family:sans-serif;font-size:13;text-anchor:middle;" transform="matrix(1 0 0 1 2043.27 322)">Semibold</text>
  <text style="stroke:none;fill:black;font-family:sans-serif;font-size:13;text-anchor:middle;" transform="matrix(1 0 0 1 2339.98 322)">Bold</text>
  <text style="stroke:none;fill:black;font-family:sans-serif;font-size:13;text-anchor:middle;" transform="matrix(1 0 0 1 2636.69 322)">Heavy</text>
  <text style="stroke:none;fill:black;font-family:sans-serif;font-size:13;text-anchor:middle;" transform="matrix(1 0 0 1 2933.4 322)">Black</text>
  <line style="fill:none;stroke:black;opacity:1;stroke-width:0.5;" x1="263" x2="3036" y1="1903" y2="1903"/>
  <g transform="matrix(0.2 0 0 0.2 263 1933)">
   <path d="m46.2402 4.15039c21.7773 0 39.4531-17.627 39.4531-39.4043s-17.6758-39.4043-39.4531-39.4043c-21.7285 0-39.4043 17.627-39.4043 39.4043s17.6758 39.4043 39.4043 39.4043Zm0-7.42188c-17.6758 0-31.9336-14.3066-31.9336-31.9824s14.2578-31.9824 31.9336-31.9824 31.9824 14.3066 31.9824 31.9824-14.3066 31.9824-31.9824 31.9824Zm-17.9688-31.9824c0 2.14844 1.51367 3.61328 3.75977 3.61328h10.498v10.5957c0 2.19727 1.46484 3.71094 3.61328 3.71094 2.24609 0 3.71094-1.51367 3.71094-3.71094v-10.5957h10.5957c2.19727 0 3.71094-1.46484 3.71094-3.61328 0-2.19727-1.51367-3.71094-3.71094-3.71094h-10.5957v-10.5469c0-2.24609-1.46484-3.75977-3.71094-3.75977-2.14844 0-3.61328 1.51367-3.61328 3.75977v10.5469h-10.498c-2.24609 0-3.75977 1.51367-3.75977 3.71094Z"/>
  </g>
  <g transform="matrix(0.2 0 0 0.2 281.506 1933)">
   <path d="m58.5449 14.5508c27.4902 0 49.8047-22.3145 49.8047-49.8047s-22.3145-49.8047-49.8047-49.8047-49.8047 22.3145-49.8047 49.8047 22.3145 49.8047 49.8047 49.8047Zm0-8.30078c-22.9492 0-41.5039-18.5547-41.5039-41.5039s18.5547-41.5039 41.5039-41.5039 41.5039 18.5547 41.5039 41.5039-18.5547 41.5039-41.5039 41.5039Zm-22.6562-41.5039c0 2.39258 1.66016 4.00391 4.15039 4.00391h14.3555v14.4043c0 2.44141 1.66016 4.15039 4.05273 4.15039 2.44141 0 4.15039-1.66016 4.15039-4.15039v-14.4043h14.4043c2.44141 0 4.15039-1.61133 4.15039-4.00391 0-2.44141-1.70898-4.15039-4.15039-4.15039h-14.4043v-14.3555c0-2.49023-1.70898-4.19922-4.15039-4.19922-2.39258 0-4.05273 1.70898-4.05273 4.19922v14.3555h-14.3555c-2.49023 0-4.15039 1.70898-4.15039 4.15039Z"/>
  </g>
  <g transform="matrix(0.2 0 0 0.2 304.924 1933)">
   <path d="m74.8535 28.3203c35.1074 0 63.623-28.4668 63.623-63.5742s-28.5156-63.623-63.623-63.623-63.5742 28.5156-63.5742 63.623 28.4668 63.5742 63.5742 63.5742Zm0-9.08203c-30.127 0-54.4922-24.3652-54.4922-54.4922s24.3652-54.4922 54.4922-54.4922 54.4922 24.3652 54.4922 54.4922-24.3652 54.4922-54.4922 54.4922Zm-28.8574-54.4922c0 2.58789 1.85547 4.39453 4.58984 4.39453h19.7266v19.7754c0 2.68555 1.85547 4.58984 4.44336 4.58984 2.68555 0 4.54102-1.85547 4.54102-4.58984v-19.7754h19.7754c2.68555 0 4.58984-1.80664 4.58984-4.39453 0-2.73438-1.85547-4.58984-4.58984-4.58984h-19.7754v-19.7266c0-2.73438-1.85547-4.63867-4.54102-4.63867-2.58789 0-4.44336 1.9043-4.44336 4.63867v19.7266h-19.7266c-2.73438 0-4.58984 1.85547-4.58984 4.58984Z"/>
  </g>
  <text style="stroke:none;fill:black;font-family:sans-serif;font-size:13;font-weight:bold;" transform="matrix(1 0 0 1 263 1953)">Design Variations</text>
  <text style="stroke:none;fill:black;font-family:sans-serif;font-size:13;" transform="matrix(1 0 0 1 263 1971)">Symbols are supported in up to nine weights and three scales.</text>
  <text style="stroke:none;fill:black;font-family:sans-serif;font-size:13;" transform="matrix(1 0 0 1 263 1989)">For optimal layout with text and other symbols, vertically align</text>
  <text style="stroke:none;fill:black;font-family:sans-serif;font-size:13;" transform="matrix(1 0 0 1 263 2007)">symbols with the adjacent text.</text>
  <line style="fill:none;stroke:#00AEEF;stroke-width:0.5;opacity:1.0;" x1="776" x2="776" y1="1919" y2="1933"/>
  <g transform="matrix(0.2 0 0 0.2 776 1933)">
   <path d="m16.5527 0.78125c2.58789 0 3.85742-0.976562 4.78516-3.71094l6.29883-17.2363h28.8086l6.29883 17.2363c0.927734 2.73438 2.19727 3.71094 4.73633 3.71094 2.58789 0 4.24805-1.5625 4.24805-4.00391 0-0.830078-0.146484-1.61133-0.537109-2.63672l-22.9004-60.9863c-1.12305-2.97852-3.125-4.49219-6.25-4.49219-3.02734 0-5.07812 1.46484-6.15234 4.44336l-22.9004 61.084c-0.390625 1.02539-0.537109 1.80664-0.537109 2.63672 0 2.44141 1.5625 3.95508 4.10156 3.95508Zm13.4766-28.3691 11.8652-32.8613h0.244141l11.8652 32.8613Z"/>
  </g>
  <line style="fill:none;stroke:#00AEEF;stroke-width:0.5;opacity:1.0;" x1="792.836" x2="792.836" y1="1919" y2="1933"/>
  <text style="stroke:none;fill:black;font-family:sans-serif;font-size:13;font-weight:bold;" transform="matrix(1 0 0 1 776 1953)">Margins</text>
  <text style="stroke:none;fill:black;font-family:sans-serif;font-size:13;" transform="matrix(1 0 0 1 776 1971)">Leading and trailing margins on the left and right side of each symbol</text>
  <text style="stroke:none;fill:black;font-family:sans-serif;font-size:13;" transform="matrix(1 0 0 1 776 1989)">can be adjusted by modifying the x-location of the margin guidelines.</text>
  <text style="stroke:none;fill:black;font-family:sans-serif;font-size:13;" transform="matrix(1 0 0 1 776 2007)">Modifications are automatically applied proportionally to all</text>
  <text style="stroke:none;fill:black;font-family:sans-serif;font-size:13;" transform="matrix(1 0 0 1 776 2025)">scales and weights.</text>
  <g transform="matrix(0.2 0 0 0.2 1289 1933)">
   <path d="m14.209 9.32617 8.49609 8.54492c4.29688 4.3457 9.22852 4.05273 13.8672-1.07422l53.4668-58.9355-4.83398-4.88281-53.0762 58.3984c-1.75781 2.00195-3.41797 2.49023-5.76172 0.146484l-5.85938-5.81055c-2.34375-2.29492-1.80664-4.00391 0.195312-5.81055l57.373-54.0039-4.88281-4.83398-57.959 54.4434c-4.93164 4.58984-5.32227 9.47266-1.02539 13.8184Zm32.0801-90.9668c-2.09961 2.05078-2.24609 4.93164-1.07422 6.88477 1.17188 1.80664 3.4668 2.97852 6.68945 2.14844 7.32422-1.70898 14.9414-2.00195 22.0703 2.68555l-2.92969 7.27539c-1.70898 4.15039-0.830078 7.08008 1.85547 9.81445l11.4746 11.5723c2.44141 2.44141 4.49219 2.53906 7.32422 2.05078l5.32227-0.976562 3.32031 3.36914-0.195312 2.7832c-0.195312 2.49023 0.439453 4.39453 2.88086 6.78711l3.80859 3.71094c2.39258 2.39258 5.46875 2.53906 7.8125 0.195312l14.5508-14.5996c2.34375-2.34375 2.24609-5.32227-0.146484-7.71484l-3.85742-3.80859c-2.39258-2.39258-4.24805-3.17383-6.64062-2.97852l-2.88086 0.244141-3.22266-3.17383 1.2207-5.61523c0.634766-2.83203-0.146484-5.0293-3.07617-7.95898l-10.9863-10.9375c-16.6992-16.6016-38.8672-16.2109-53.3203-1.75781Zm7.4707 1.85547c12.1582-8.88672 28.6133-7.37305 39.7461 3.75977l12.1582 12.0605c1.17188 1.17188 1.36719 2.09961 1.02539 3.80859l-1.61133 7.42188 7.51953 7.42188 4.93164-0.292969c1.26953-0.0488281 1.66016 0.0488281 2.63672 1.02539l2.88086 2.88086-12.207 12.207-2.88086-2.88086c-0.976562-0.976562-1.12305-1.36719-1.07422-2.68555l0.341797-4.88281-7.4707-7.42188-7.61719 1.26953c-1.61133 0.341797-2.34375 0.195312-3.56445-0.976562l-10.0098-10.0098c-1.26953-1.17188-1.41602-2.00195-0.634766-3.85742l4.39453-10.4492c-7.8125-7.27539-17.9688-10.4004-28.125-7.42188-0.78125 0.195312-1.07422-0.439453-0.439453-0.976562Z"/>
  </g>
  <text style="stroke:none;fill:black;font-family:sans-serif;font-size:13;font-weight:bold;" transform="matrix(1 0 0 1 1289 1953)">Exporting</text>
  <text style="stroke:none;fill:black;font-family:sans-serif;font-size:13;" transform="matrix(1 0 0 1 1289 1971)">Symbols should be outlined when exporting to ensure the</text>
  <text style="stroke:none;fill:black;font-family:sans-serif;font-size:13;" transform="matrix(1 0 0 1 1289 1989)">design is preserved when submitting to Xcode.</text>
  <text id="template-version" style="stroke:none;fill:black;font-family:sans-serif;font-size:13;text-anchor:end;" transform="matrix(1 0 0 1 3036 1933)">Template v.5.0</text>
  <text style="stroke:none;fill:black;font-family:sans-serif;font-size:13;text-anchor:end;" transform="matrix(1 0 0 1 3036 1951)">Requires Xcode 15 or greater</text>
  <text id="descriptive-name" style="stroke:none;fill:black;font-family:sans-serif;font-size:13;text-anchor:end;" transform="matrix(1 0 0 1 3036 1969)">Generated from puzzlepiece.extension.fill 1 (5)</text>
  <text style="stroke:none;fill:black;font-family:sans-serif;font-size:13;text-anchor:end;" transform="matrix(1 0 0 1 3036 1987)">Typeset at 100.0 points</text>
  <text style="stroke:none;fill:black;font-family:sans-serif;font-size:13;" transform="matrix(1 0 0 1 263 726)">Small</text>
  <text style="stroke:none;fill:black;font-family:sans-serif;font-size:13;" transform="matrix(1 0 0 1 263 1156)">Medium</text>
  <text style="stroke:none;fill:black;font-family:sans-serif;font-size:13;" transform="matrix(1 0 0 1 263 1586)">Large</text>
 </g>
 <g id="Guides">
  <g id="H-reference" style="fill:#27AAE1;stroke:none;" transform="matrix(1 0 0 1 339 696)">
   <path d="M0.993654 0L3.63775 0L29.3281-67.1323L30.0303-67.1323L30.0303-70.459L28.1226-70.459ZM11.6885-24.4799L46.9815-24.4799L46.2315-26.7285L12.4385-26.7285ZM55.1196 0L57.7637 0L30.6382-70.459L29.4326-70.459L29.4326-67.1323Z"/>
  </g>
  <line id="Baseline-S" style="fill:none;stroke:#27AAE1;opacity:1;stroke-width:0.5;" x1="263" x2="3036" y1="696" y2="696"/>
  <line id="Capline-S" style="fill:none;stroke:#27AAE1;opacity:1;stroke-width:0.5;" x1="263" x2="3036" y1="625.541" y2="625.541"/>
  <g id="H-reference" style="fill:#27AAE1;stroke:none;" transform="matrix(1 0 0 1 339 1126)">
   <path d="M0.993654 0L3.63775 0L29.3281-67.1323L30.0303-67.1323L30.0303-70.459L28.1226-70.459ZM11.6885-24.4799L46.9815-24.4799L46.2315-26.7285L12.4385-26.7285ZM55.1196 0L57.7637 0L30.6382-70.459L29.4326-70.459L29.4326-67.1323Z"/>
  </g>
  <line id="Baseline-M" style="fill:none;stroke:#27AAE1;opacity:1;stroke-width:0.5;" x1="263" x2="3036" y1="1126" y2="1126"/>
  <line id="Capline-M" style="fill:none;stroke:#27AAE1;opacity:1;stroke-width:0.5;" x1="263" x2="3036" y1="1055.54" y2="1055.54"/>
  <g id="H-reference" style="fill:#27AAE1;stroke:none;" transform="matrix(1 0 0 1 339 1556)">
   <path d="M0.993654 0L3.63775 0L29.3281-67.1323L30.0303-67.1323L30.0303-70.459L28.1226-70.459ZM11.6885-24.4799L46.9815-24.4799L46.2315-26.7285L12.4385-26.7285ZM55.1196 0L57.7637 0L30.6382-70.459L29.4326-70.459L29.4326-67.1323Z"/>
  </g>
  <line id="Baseline-L" style="fill:none;stroke:#27AAE1;opacity:1;stroke-width:0.5;" x1="263" x2="3036" y1="1556" y2="1556"/>
  <line id="Capline-L" style="fill:none;stroke:#27AAE1;opacity:1;stroke-width:0.5;" x1="263" x2="3036" y1="1485.54" y2="1485.54"/>
  <line id="right-margin-Black-S" style="fill:none;stroke:#00AEEF;stroke-width:0.5;opacity:1.0;" x1="2989.87" x2="2989.87" y1="600.785" y2="720.121"/>
  <line id="left-margin-Black-S" style="fill:none;stroke:#00AEEF;stroke-width:0.5;opacity:1.0;" x1="2876.93" x2="2876.93" y1="600.785" y2="720.121"/>
  <line id="right-margin-Regular-S" style="fill:none;stroke:#00AEEF;stroke-width:0.5;opacity:1.0;" x1="1503.82" x2="1503.82" y1="600.785" y2="720.121"/>
  <line id="left-margin-Regular-S" style="fill:none;stroke:#00AEEF;stroke-width:0.5;opacity:1.0;" x1="1395.86" x2="1395.86" y1="600.785" y2="720.121"/>
  <line id="right-margin-Ultralight-S" style="fill:none;stroke:#00AEEF;stroke-width:0.5;opacity:1.0;" x1="613.146" x2="613.146" y1="600.785" y2="720.121"/>
  <line id="left-margin-Ultralight-S" style="fill:none;stroke:#00AEEF;stroke-width:0.5;opacity:1.0;" x1="506.277" x2="506.277" y1="600.785" y2="720.121"/>
 </g>
 <g id="Symbols">
  <g id="Black-S" transform="matrix(1 0 0 1 2876.93 696)">
   <path class="SFSymbolsPreviewWireframe" d="M61.57-48.25C59.77-48.25 58.32-46.796 58.32-45C58.32-44.276 58.55-43.61 58.96-43.063L59.45-42.387L58.72-41.97C56.99-40.975 55.82-39.125 55.82-37C55.82-35.208 56.65-33.608 57.95-32.553L58.99-31.709L57.73-31.263C55.16-30.353 51.1-26.418 50.83-19.25L72.31-19.25C72.04-26.418 67.98-30.353 65.41-31.263L64.15-31.709L65.19-32.553C66.49-33.608 67.32-35.208 67.32-37C67.32-39.125 66.15-40.975 64.42-41.97L63.69-42.387L64.18-43.063C64.59-43.61 64.82-44.276 64.82-45C64.82-46.796 63.37-48.25 61.57-48.25ZM61.57-49C59.36-49 57.57-47.21 57.57-45C57.57-44.11 57.86-43.29 58.35-42.62C56.4-41.5 55.07-39.41 55.07-37C55.07-34.97 56.01-33.16 57.48-31.97C54.48-30.91 50.07-26.42 50.07-18.5L73.07-18.5C73.07-26.42 68.66-30.91 65.66-31.97C67.13-33.16 68.07-34.97 68.07-37C68.07-39.41 66.74-41.5 64.79-42.62C65.28-43.29 65.57-44.11 65.57-45C65.57-47.21 63.78-49 61.57-49Z"/>
   <path class="monochrome-0 multicolor-0:tintColor hierarchical-0:secondary SFSymbolsPreviewWireframe" d="M9.77-10.107C9.77-0.439 15.04 4.736 24.8 4.736L71 4.736C80.76 4.736 86.04-0.439 86.04-10.107L86.04-21.387C86.04-22.363 86.72-22.363 87.26-22.168C88.82-21.582 90.43-21.289 92.14-21.289C100.54-21.289 106.1-26.855 106.1-35.254C106.1-43.652 100.54-49.219 92.14-49.219C90.43-49.219 88.82-48.926 87.26-48.34C86.72-48.144 86.04-48.144 86.04-49.121L86.04-60.4C86.04-70.068 80.76-75.244 71-75.244L24.8-75.244C15.04-75.244 9.77-70.068 9.77-60.4L9.77-43.31C9.77-39.502 12.4-37.646 15.28-37.646C17.24-37.646 19.34-38.574 20.65-40.381C21.83-41.992 24.71-45.264 29.59-45.264C35.35-45.264 39.99-40.478 40.23-34.619C40.48-28.76 35.45-23.975 29.59-23.975C24.71-23.975 21.83-27.246 20.65-28.857C19.34-30.664 17.24-31.592 15.28-31.592C12.4-31.592 9.77-29.736 9.77-25.928L9.77-10.107Z"/>
   <path class="monochrome-1 multicolor-1:tintColor hierarchical-1:primary SFSymbolsPreviewWireframe" d="M56.82-45C56.82-47.624 58.95-49.75 61.57-49.75C64.19-49.75 66.32-47.624 66.32-45C66.32-44.227 66.14-43.499 65.81-42.853C67.62-41.542 68.82-39.418 68.82-37C68.82-35.154 68.12-33.471 66.98-32.194C70.15-30.467 73.82-25.847 73.82-18.5L73.82-17.75L49.32-17.75L49.32-18.5C49.32-25.847 52.99-30.467 56.16-32.194C55.02-33.471 54.32-35.154 54.32-37C54.32-39.418 55.52-41.542 57.33-42.853C57-43.499 56.82-44.227 56.82-45Z"/>
  </g>
  <g id="Regular-S" transform="matrix(1 0 0 1 1395.86 696)">
   <path class="SFSymbolsPreviewWireframe" d="M55.64-46.25C53.84-46.25 52.39-44.796 52.39-43C52.39-42.276 52.62-41.61 53.03-41.063L53.52-40.387L52.79-39.97C51.06-38.975 49.89-37.125 49.89-35C49.89-33.208 50.72-31.608 52.02-30.553L53.06-29.709L51.8-29.263C49.23-28.353 45.17-24.418 44.9-17.25L66.38-17.25C66.11-24.418 62.05-28.353 59.48-29.263L58.22-29.709L59.26-30.553C60.56-31.608 61.39-33.208 61.39-35C61.39-37.125 60.22-38.975 58.49-39.97L57.76-40.387L58.25-41.063C58.66-41.61 58.89-42.276 58.89-43C58.89-44.796 57.44-46.25 55.64-46.25ZM55.64-47C53.43-47 51.64-45.21 51.64-43C51.64-42.11 51.93-41.29 52.42-40.62C50.47-39.5 49.14-37.41 49.14-35C49.14-32.97 50.08-31.16 51.55-29.97C48.55-28.91 44.14-24.42 44.14-16.5L67.14-16.5C67.14-24.42 62.73-28.91 59.73-29.97C61.2-31.16 62.14-32.97 62.14-35C62.14-37.41 60.81-39.5 58.86-40.62C59.35-41.29 59.64-42.11 59.64-43C59.64-45.21 57.85-47 55.64-47Z"/>
   <path class="monochrome-0 multicolor-0:tintColor hierarchical-0:secondary SFSymbolsPreviewWireframe" d="M9.77-10.254C9.77-2.051 13.82 2.1 21.92 2.1L68.51 2.1C76.71 2.1 80.86-1.953 80.86-10.059L80.86-25.977C80.86-26.709 81.4-26.953 82.13-26.416C84.18-24.805 86.72-23.682 89.6-23.682C95.95-23.682 101.12-28.857 101.12-35.254C101.12-41.65 95.95-46.826 89.6-46.826C86.72-46.826 84.18-45.752 82.13-44.141C81.4-43.555 80.86-43.848 80.86-44.531L80.86-60.547C80.86-68.652 76.71-72.705 68.51-72.705L21.92-72.705C13.82-72.705 9.77-68.555 9.77-60.352L9.77-44.287C9.77-41.699 11.87-39.99 14.26-39.99C15.62-39.99 17.09-40.576 18.31-41.797C19.97-43.408 22.17-45.752 26.81-45.752C32.57-45.752 37.26-41.016 37.26-35.254C37.26-29.492 32.57-24.756 26.81-24.756C22.17-24.756 19.97-27.1 18.31-28.711C17.09-29.932 15.62-30.518 14.26-30.518C11.87-30.518 9.77-28.809 9.77-26.221L9.77-10.254Z"/>
   <path class="monochrome-1 multicolor-1:tintColor hierarchical-1:primary SFSymbolsPreviewWireframe" d="M50.89-43C50.89-45.624 53.02-47.75 55.64-47.75C58.26-47.75 60.39-45.624 60.39-43C60.39-42.227 60.21-41.499 59.88-40.853C61.69-39.542 62.89-37.418 62.89-35C62.89-33.154 62.19-31.471 61.05-30.194C64.22-28.467 67.89-23.847 67.89-16.5L67.89-15.75L43.39-15.75L43.39-16.5C43.39-23.847 47.06-28.467 50.23-30.194C49.09-31.471 48.39-33.154 48.39-35C48.39-37.418 49.59-39.542 51.4-40.853C51.07-41.499 50.89-42.227 50.89-43Z"/>
  </g>
  <g id="Ultralight-S" transform="matrix(1 0 0 1 506.277 696)">
   <path class="SFSymbolsPreviewWireframe" d="M55.223-48.25C53.427-48.25 51.973-46.796 51.973-45C51.973-44.276 52.208-43.61 52.608-43.063L53.103-42.387L52.377-41.97C50.645-40.975 49.473-39.125 49.473-37C49.473-35.208 50.302-33.608 51.605-32.553L52.647-31.709L51.383-31.263C48.809-30.353 44.753-26.418 44.487-19.25L65.959-19.25C65.693-26.418 61.637-30.353 59.063-31.263L57.799-31.709L58.841-32.553C60.144-33.608 60.973-35.208 60.973-37C60.973-39.125 59.801-40.975 58.069-41.97L57.343-42.387L57.838-43.063C58.238-43.61 58.473-44.276 58.473-45C58.473-46.796 57.019-48.25 55.223-48.25ZM55.223-49C53.013-49 51.223-47.21 51.223-45C51.223-44.11 51.513-43.29 52.003-42.62C50.053-41.5 48.723-39.41 48.723-37C48.723-34.97 49.663-33.16 51.133-31.97C48.133-30.91 43.723-26.42 43.723-18.5L66.723-18.5C66.723-26.42 62.313-30.91 59.313-31.97C60.783-33.16 61.723-34.97 61.723-37C61.723-39.41 60.393-41.5 58.443-42.62C58.933-43.29 59.223-44.11 59.223-45C59.223-47.21 57.433-49 55.223-49Z"/>
   <path class="monochrome-0 multicolor-0:tintColor hierarchical-0:secondary SFSymbolsPreviewWireframe" d="M9.766-8.301C9.766-3.504 13.001-0.307 17.928-0.307L68.597-0.307C73.53-0.307 76.772-3.497 76.772-8.288L76.772-25.341C76.772-26.391 77.627-27.044 78.678-26.28C80.865-24.714 83.268-22.41 88.328-22.41C95.357-22.41 100.033-27.314 100.033-34.664C100.033-41.968 95.357-46.872 88.328-46.872C83.268-46.872 80.865-44.571 78.678-43.005C77.627-42.238 76.772-42.94 76.772-43.986L76.772-62.318C76.772-67.108 73.53-70.298 68.597-70.298L17.928-70.298C13.001-70.298 9.766-67.102 9.766-62.304L9.766-44.469C9.766-42.426 11.002-40.989 12.805-40.989C13.672-40.989 14.501-41.348 15.54-42.206C17.882-44.135 20.034-45.57 23.582-45.57C29.48-45.57 33.396-41.424 33.396-35.254C33.396-29.083 29.48-24.938 23.582-24.938C20.034-24.938 17.882-26.373 15.54-28.302C14.501-29.16 13.672-29.519 12.805-29.519C11.002-29.519 9.766-28.082 9.766-26.039L9.766-8.301Z"/>
   <path class="monochrome-1 multicolor-1:tintColor hierarchical-1:primary SFSymbolsPreviewWireframe" d="M50.473-45C50.473-47.624 52.599-49.75 55.223-49.75C57.847-49.75 59.973-47.624 59.973-45C59.973-44.227 59.788-43.499 59.462-42.853C61.275-41.542 62.473-39.418 62.473-37C62.473-35.154 61.776-33.471 60.633-32.194C63.799-30.467 67.473-25.847 67.473-18.5L67.473-17.75L42.973-17.75L42.973-18.5C42.973-25.847 46.647-30.467 49.813-32.194C48.67-33.471 47.973-35.154 47.973-37C47.973-39.418 49.171-41.542 50.984-42.853C50.658-43.499 50.473-44.227 50.473-45Z"/>
  </g>
 </g>
</svg>
